<?xml version="1.0" encoding="iso-8859-1"?>
<!-- Uploaded to: SVG Repo, www.svgrepo.com, Generator: SVG Repo Mixer Tools -->
<svg fill="#929292" height="800px" width="800px" version="1.1" id="Layer_1" xmlns="http://www.w3.org/2000/svg"
	xmlns:xlink="http://www.w3.org/1999/xlink" viewBox="0 0 512.006 512.006" xml:space="preserve">
	<g transform="translate(0 -1)">
		<g>
			<path d="M477.977,333.249c-0.738-0.965-1.211-2.038-1.713-3.033c-0.65-1.3-1.29-2.55-2.028-3.722
			c-8.32-13.214-11.687-28.928-9.472-44.249c1.487-10.26,3.436-15.252,4.46-17.329c2.727-5.524,3.584-11.904,2.393-17.92
			c-5.374-27.492-31.558-48.963-40.075-55.314c-0.205-0.512-0.439-1.084-0.7-1.712c-6.753-64.662-27.73-113.991-62.628-147.01
			C322.498-0.313,269.624,0.839,264.592,1.046l-16.847,0.02c-2.294-0.118-56.891-2.619-103.936,41.895
			c-34.895,33.016-55.865,82.34-62.617,146.993c-0.26,0.625-0.493,1.196-0.698,1.707c-8.486,6.323-34.724,27.811-40.105,55.336
			c-1.182,6.055-0.325,12.416,2.402,17.93c1.014,2.068,2.964,7.06,4.451,17.319c2.215,15.321-1.152,31.035-9.492,44.268
			c-0.719,1.152-1.359,2.402-2.009,3.702c-0.502,0.995-0.975,2.068-1.713,3.023c-20.135,26.614-19.131,58.417,2.668,85.071
			c6.302,7.729,9.177,27.441,10.969,43.756c2.629,23.847,22.695,41.561,46.385,41.561c1.044,0,2.107-0.03,3.151-0.099
			c18.217-1.201,40.098-4.622,60.619-12.914v12.546c0,5.435,4.401,9.846,9.846,9.846c5.445,0,9.846-4.411,9.846-9.846v-19.692
			c0-0.883-0.127-1.734-0.345-2.548c6.805-4.18,13.227-9.089,19.045-14.847c1.604,1.167,3.201,2.346,4.793,3.522
			c15.764,11.658,32.079,23.719,55.01,23.719s39.237-12.062,55.01-23.719c1.587-1.173,3.178-2.348,4.776-3.512
			c5.953,5.89,12.537,10.894,19.516,15.135c-0.169,0.724-0.268,1.475-0.268,2.25v19.692c0,5.435,4.401,9.846,9.846,9.846
			c5.445,0,9.846-4.411,9.846-9.846v-12.323c20.359,8.13,42.009,11.501,60.061,12.692c1.054,0.069,2.107,0.099,3.141,0.099
			c23.7,0,43.766-17.713,46.395-41.561c1.792-16.315,4.667-36.027,10.969-43.746C497.108,391.656,498.113,359.853,477.977,333.249z
			 M157.053,57.543c36.746-34.983,79.793-36.825,88.566-36.825c0.945,0,1.487,0.02,1.585,0.02h17.615c0.187,0,0.364,0,0.542-0.01
			c0.561-0.049,48.394-2.186,89.324,36.539c23.13,21.888,39.507,52.194,49.021,90.554c-26.099-25.183-65.004-35.262-102.715-24.679
			c-27.727,7.788-62.238,7.788-89.945,0c-37.743-10.582-76.618-0.509-102.71,24.659C117.81,109.618,134.085,79.411,157.053,57.543z
			 M95.912,483.876c-14.277,0.945-27.106-9.807-28.672-23.956c-2.688-24.517-6.321-43.097-15.291-54.075
			c-15.911-19.427-16.709-41.561-2.206-60.741c1.477-1.959,2.59-4.047,3.594-6.065c0.364-0.729,0.709-1.428,1.093-2.048
			c10.811-17.172,15.183-37.612,12.298-57.57c-1.428-9.886-3.555-17.713-6.292-23.237c-0.827-1.654-1.073-3.584-0.719-5.406
			c2.42-12.402,11.309-23.763,19.452-31.933c-0.246,6.402-0.384,12.919-0.384,19.582c0,67.249,6.607,135.759,54.518,181.238
			c14.265,13.542,30.513,24.484,46.285,35.032C156.377,475.552,121.997,482.157,95.912,483.876z M256.016,473.622
			c-16.443,0-29.489-9.639-43.303-19.86c-3.84-2.846-7.7-5.691-11.638-8.369l-9.561-6.41c-15.39-10.289-31.311-20.933-44.652-33.595
			C102.22,363,98.478,296.982,98.478,238.427c0-15.248,0.671-29.742,1.998-43.485c1.665-3.776,4.138-8.967,7.432-14.78
			c18.806-33.29,59.038-48.955,97.812-38.055c31.163,8.743,69.376,8.753,100.598,0c38.754-10.909,78.996,4.756,97.812,38.065
			c3.292,5.814,5.765,11.007,7.429,14.783c1.325,13.739,1.997,28.228,1.997,43.471c0,58.555-3.742,124.573-48.384,166.961
			c-13.351,12.662-29.273,23.306-44.662,33.595l-8.755,5.876c-0.047,0.032-0.095,0.063-0.142,0.095l-0.654,0.439
			c-3.948,2.678-7.798,5.524-11.648,8.369C285.506,463.982,272.46,473.622,256.016,473.622z M460.057,405.855
			c-8.97,10.969-12.603,29.548-15.291,54.065c-1.566,14.149-14.326,24.822-28.672,23.956c-26.08-1.718-60.454-8.321-83.665-29.168
			c15.776-10.551,32.021-21.496,46.3-35.042c47.911-45.479,54.518-113.989,54.518-181.238c0-6.652-0.138-13.159-0.383-19.552
			c8.135,8.17,17.007,19.524,19.424,31.923c0.364,1.812,0.108,3.722-0.709,5.376c-2.747,5.534-4.874,13.361-6.302,23.247
			c-2.885,19.958,1.487,40.399,12.278,57.551c0.404,0.64,0.748,1.339,1.113,2.068c1.004,2.018,2.117,4.106,3.594,6.085
			C476.766,364.284,475.969,386.418,460.057,405.855z" />
		</g>
	</g>
</svg>